<svg version="1.0" xmlns="http://www.w3.org/2000/svg" width="933.333" height="933.333" viewBox="0 0 700 700"><path d="M0 350v350h700V0H0v350zm232.5-214.3c31.7 32.1 57.1 58.3 56.4 58.3-.8 0-7.4-1.6-14.7-3.5-47.4-12.5-92.2-37.4-127.7-70.8l-8-7.6L156 94.6c9.6-9.7 17.8-17.5 18.1-17.4.3.2 26.6 26.5 58.4 58.5zM544 94.6l17.5 17.5-8 7.6c-29.2 27.8-67.3 50.9-106.5 64.4-11 3.8-33 9.9-35.9 9.9C410 194 524.7 77.2 526 77.1c.3-.1 8.4 7.8 18 17.5zM218.1 244.1C276.4 302 324 349.6 324 349.9c0 .4-47.7 48.1-106.1 106.1L111.8 561.3l-17.6-17.6L76.5 526l88.5-88 88.5-88-88.4-88.1-88.4-88.1 17.4-17.4c9.6-9.6 17.5-17.4 17.8-17.4.2 0 48 47.3 106.2 105.1zm387.8-87.7l17.4 17.5-88.4 88-88.4 88.1 88.5 88 88.5 88-17.7 17.7-17.6 17.6-106.1-105.4C423.7 398 376 350.3 376 350c-.1-.6 211.3-210.9 212-211 .3 0 8.4 7.8 17.9 17.4zm-297.4 41.2c22 3.5 66.3 2.9 90.4-1.2 4.6-.8 8.5-1.3 8.7-1.1.2.2-12.6 13.6-28.5 29.8l-28.9 29.4-12.2-12c-6.7-6.6-19.9-20.1-29.3-29.9-16.1-16.7-17-17.9-13.7-17.3 1.9.4 8 1.4 13.5 2.3zm70.9 277.6c15.7 16 28.4 29.3 28.2 29.6-.3.2-2.8-.1-5.8-.7-26-5.3-70.4-5.5-100.2-.5-4.8.8-9 1.3-9.2 1.1-.5-.5 56.6-58.7 57.6-58.7.5 0 13.7 13.1 29.4 29.2zm-146.9 89c-31.8 32.1-58.1 58.4-58.4 58.6-.3.1-8.5-7.7-18.1-17.4l-17.5-17.5 8-7.6c31.4-29.5 70.7-52.8 112-66.3 8.9-3 27.4-7.9 29.9-7.9 1.1-.1-20.8 22.7-55.9 58.1zM420.6 508c47.6 11.4 96.7 38 132.4 71.8l8.5 8.1-17.5 17.5c-9.6 9.7-17.8 17.5-18.1 17.4C524 622 410 506 411.1 506c.8 0 5.1.9 9.5 2z"/></svg>