<svg width="588" height="325" viewBox="0 0 588 325" fill="none" xmlns="http://www.w3.org/2000/svg">
<path d="M0.5 12C0.5 5.64872 5.64873 0.5 12 0.5H43C47.6426 0.5 51.8298 3.29148 53.6154 7.57692L57.4615 16.8077C59.4024 21.4658 63.9537 24.5 69 24.5H141C146.046 24.5 150.598 21.4658 152.538 16.8077L156.385 7.57692C158.17 3.29148 162.357 0.5 167 0.5H508C514.351 0.5 519.5 5.64873 519.5 12V56C519.5 62.9036 525.096 68.5 532 68.5H576C582.351 68.5 587.5 73.6487 587.5 80V313C587.5 319.351 582.351 324.5 576 324.5H12C5.64872 324.5 0.5 319.351 0.5 313V12Z" fill="white" stroke="#5D5169"/>
</svg>
