<svg width="396" height="443" viewBox="0 0 396 443" fill="none" xmlns="http://www.w3.org/2000/svg">
<path d="M395.5 11.9725C395.5 8.76484 394.518 5.87986 392.955 3.80786C391.392 1.73612 389.269 0.500028 386.966 0.500028L256.835 0.49999C251.812 0.499988 247.371 3.75944 245.864 8.55075L242.738 18.4944C241.624 22.0358 238.341 24.4449 234.629 24.4449L157.534 24.4449C153.822 24.4449 150.539 22.0358 149.426 18.4944L146.299 8.55073C144.793 3.75943 140.351 0.499978 135.329 0.499978L9.03424 0.499972C6.73087 0.499971 4.60849 1.73606 3.0452 3.8078C1.48172 5.87979 0.50003 8.76478 0.500029 11.9724L0.499993 431.028C0.499993 434.235 1.48168 437.12 3.04516 439.192C4.60845 441.264 6.73083 442.5 9.0342 442.5L198 442.5L386.966 442.5C389.269 442.5 391.391 441.264 392.955 439.192C394.518 437.12 395.5 434.235 395.5 431.028L395.5 11.9725Z" fill="white" stroke="#453953"/>
</svg>
